<?xml version="1.0" encoding="UTF-8" standalone="no"?>
<!-- Created with Inkscape (http://www.inkscape.org/) -->

<svg
   xmlns:dc="http://purl.org/dc/elements/1.1/"
   xmlns:cc="http://creativecommons.org/ns#"
   xmlns:rdf="http://www.w3.org/1999/02/22-rdf-syntax-ns#"
   xmlns:svg="http://www.w3.org/2000/svg"
   xmlns="http://www.w3.org/2000/svg"
   xmlns:sodipodi="http://sodipodi.sourceforge.net/DTD/sodipodi-0.dtd"
   xmlns:inkscape="http://www.inkscape.org/namespaces/inkscape"
   width="48"
   height="48"
   viewBox="0 0 48 48.000001"
   id="svg2"
   version="1.1"
   inkscape:version="0.91 r"
   sodipodi:docname="AdminPhpMysql.svg">
  <defs
     id="defs4">
    <clipPath
       id="clipPath3444"
       clipPathUnits="userSpaceOnUse">
      <path
         id="path3446"
         d="M 11.52,162 C 11.52,81.677 135.307,16.561 288,16.561 l 0,0 c 152.693,0 276.481,65.116 276.481,145.439 l 0,0 c 0,80.322 -123.788,145.439 -276.481,145.439 l 0,0 C 135.307,307.439 11.52,242.322 11.52,162"
         inkscape:connector-curvature="0" />
    </clipPath>
    <radialGradient
       spreadMethod="pad"
       r="1"
       id="radialGradient3452"
       gradientUnits="userSpaceOnUse"
       gradientTransform="matrix(363.05789,0,0,-363.05789,177.52002,256.30713)"
       fy="0"
       fx="0"
       cy="0"
       cx="0">
      <stop
         style="stop-opacity:1;stop-color:#aeb2d5"
         offset="0"
         id="stop3454" />
      <stop
         style="stop-opacity:1;stop-color:#aeb2d5"
         offset="0.3"
         id="stop3456" />
      <stop
         style="stop-opacity:1;stop-color:#484c89"
         offset="0.75"
         id="stop3458" />
      <stop
         style="stop-opacity:1;stop-color:#484c89"
         offset="1"
         id="stop3460" />
    </radialGradient>
    <clipPath
       id="clipPath3468"
       clipPathUnits="userSpaceOnUse">
      <path
         id="path3470"
         d="M 0,324 576,324 576,0 0,0 0,324 Z"
         inkscape:connector-curvature="0" />
    </clipPath>
    <clipPath
       id="clipPath3480"
       clipPathUnits="userSpaceOnUse">
      <path
         id="path3482"
         d="M 0,324 576,324 576,0 0,0 0,324 Z"
         inkscape:connector-curvature="0" />
    </clipPath>
    <clipPath
       id="clipPath3444-9"
       clipPathUnits="userSpaceOnUse">
      <path
         inkscape:connector-curvature="0"
         id="path3446-6"
         d="M 11.52,162 C 11.52,81.677 135.307,16.561 288,16.561 l 0,0 c 152.693,0 276.481,65.116 276.481,145.439 l 0,0 c 0,80.322 -123.788,145.439 -276.481,145.439 l 0,0 C 135.307,307.439 11.52,242.322 11.52,162" />
    </clipPath>
    <radialGradient
       spreadMethod="pad"
       r="1"
       id="radialGradient3452-4"
       gradientUnits="userSpaceOnUse"
       gradientTransform="matrix(363.05789,0,0,-363.05789,177.52002,256.30713)"
       fy="0"
       fx="0"
       cy="0"
       cx="0">
      <stop
         style="stop-opacity:1;stop-color:#aeb2d5"
         offset="0"
         id="stop3454-0" />
      <stop
         style="stop-opacity:1;stop-color:#aeb2d5"
         offset="0.3"
         id="stop3456-9" />
      <stop
         style="stop-opacity:1;stop-color:#484c89"
         offset="0.75"
         id="stop3458-4" />
      <stop
         style="stop-opacity:1;stop-color:#484c89"
         offset="1"
         id="stop3460-2" />
    </radialGradient>
    <clipPath
       id="clipPath3468-6"
       clipPathUnits="userSpaceOnUse">
      <path
         inkscape:connector-curvature="0"
         id="path3470-0"
         d="M 0,324 576,324 576,0 0,0 0,324 Z" />
    </clipPath>
    <clipPath
       id="clipPath3480-9"
       clipPathUnits="userSpaceOnUse">
      <path
         inkscape:connector-curvature="0"
         id="path3482-9"
         d="M 0,324 576,324 576,0 0,0 0,324 Z" />
    </clipPath>
  </defs>
  <sodipodi:namedview
     id="base"
     pagecolor="#ffffff"
     bordercolor="#666666"
     borderopacity="1.0"
     inkscape:pageopacity="0.0"
     inkscape:pageshadow="2"
     inkscape:zoom="13.104166"
     inkscape:cx="26.324726"
     inkscape:cy="29.869305"
     inkscape:document-units="px"
     inkscape:current-layer="layer1"
     showgrid="false"
     inkscape:object-paths="true"
     inkscape:object-nodes="true"
     inkscape:window-width="1366"
     inkscape:window-height="718"
     inkscape:window-x="0"
     inkscape:window-y="0"
     inkscape:window-maximized="1"
     units="px" />
  <metadata
     id="metadata7">
    <rdf:RDF>
      <cc:Work
         rdf:about="">
        <dc:format>image/svg+xml</dc:format>
        <dc:type
           rdf:resource="http://purl.org/dc/dcmitype/StillImage" />
        <dc:title></dc:title>
      </cc:Work>
    </rdf:RDF>
  </metadata>
  <g
     inkscape:label="Camada 1"
     inkscape:groupmode="layer"
     id="layer1"
     transform="translate(0,-1004.3622)">
    <g
       id="g4890"
       transform="matrix(0.07793615,0,0,0.07793615,-5.3883386,968.98523)">
      <g
         id="g3438"
         transform="matrix(0.76869856,0,0,-0.76869856,73.113467,855.4628)">
        <g
           id="g3440">
          <g
             clip-path="url(#clipPath3444-9)"
             id="g3442">
            <g
               id="g3448">
              <g
                 id="g3450">
                <path
                   inkscape:connector-curvature="0"
                   d="M 11.52,162 C 11.52,81.677 135.307,16.561 288,16.561 l 0,0 c 152.693,0 276.481,65.116 276.481,145.439 l 0,0 c 0,80.322 -123.788,145.439 -276.481,145.439 l 0,0 C 135.307,307.439 11.52,242.322 11.52,162"
                   id="path3462"
                   style="fill:url(#radialGradient3452-4);stroke:none" />
              </g>
            </g>
          </g>
        </g>
        <g
           id="g3464">
          <g
             clip-path="url(#clipPath3468-6)"
             id="g3466">
            <g
               id="g3472"
               transform="translate(288,27.3594)">
              <path
                 inkscape:connector-curvature="0"
                 d="M 0,0 C 146.729,0 265.68,60.281 265.68,134.641 265.68,209 146.729,269.282 0,269.282 -146.729,269.282 -265.68,209 -265.68,134.641 -265.68,60.281 -146.729,0 0,0"
                 id="path3474"
                 style="fill:#777bb3;fill-opacity:1;fill-rule:nonzero;stroke:none" />
            </g>
          </g>
        </g>
        <g
           id="g3476">
          <g
             clip-path="url(#clipPath3480-9)"
             id="g3478">
            <g
               id="g3484"
               transform="translate(161.7344,145.3066)">
              <path
                 inkscape:connector-curvature="0"
                 d="m 0,0 c 12.065,0 21.072,2.225 26.771,6.611 5.638,4.341 9.532,11.862 11.573,22.353 1.903,9.806 1.178,16.653 -2.154,20.348 C 32.783,53.086 25.417,55 14.297,55 L -4.984,55 -15.673,0 0,0 Z m -63.063,-67.75 c -0.895,0 -1.745,0.4 -2.314,1.092 -0.57,0.691 -0.801,1.601 -0.63,2.48 L -37.679,81.573 C -37.405,82.982 -36.17,84 -34.734,84 L 26.32,84 C 45.508,84 59.79,78.79 68.767,68.513 77.792,58.182 80.579,43.741 77.05,25.592 75.614,18.198 73.144,11.331 69.709,5.183 66.27,-0.972 61.725,-6.667 56.198,-11.747 49.582,-17.939 42.094,-22.429 33.962,-25.071 25.959,-27.678 15.681,-29 3.414,-29 l -24.722,0 -7.06,-36.322 c -0.274,-1.41 -1.508,-2.428 -2.944,-2.428 l -31.751,0 z"
                 id="path3486"
                 style="fill:#000000;fill-opacity:1;fill-rule:nonzero;stroke:none" />
            </g>
            <g
               id="g3488"
               transform="translate(159.2236,197.3071)">
              <path
                 inkscape:connector-curvature="0"
                 d="m 0,0 16.808,0 c 13.421,0 18.083,-2.945 19.667,-4.7 2.628,-2.914 3.124,-9.058 1.435,-17.767 C 36.012,-32.217 32.494,-39.13 27.452,-43.012 22.29,-46.986 13.898,-49 2.511,-49 L -9.523,-49 0,0 Z m 28.831,35 -61.055,0 c -2.872,0 -5.341,-2.036 -5.889,-4.855 l -28.328,-145.751 c -0.342,-1.759 0.12,-3.578 1.259,-4.961 1.14,-1.383 2.838,-2.183 4.63,-2.183 l 31.75,0 c 2.873,0 5.342,2.036 5.89,4.855 l 6.588,33.895 22.249,0 c 12.582,0 23.174,1.372 31.479,4.077 8.541,2.775 16.399,7.48 23.354,13.984 5.752,5.292 10.49,11.232 14.08,17.657 3.591,6.427 6.171,13.594 7.668,21.302 3.715,19.104 0.697,34.402 -8.969,45.466 C 63.965,29.444 48.923,35 28.831,35 m -45.633,-90 19.313,0 c 12.801,0 22.336,2.411 28.601,7.234 6.266,4.824 10.492,12.875 12.688,24.157 2.101,10.832 1.144,18.476 -2.871,22.929 C 36.909,3.773 28.87,6 16.808,6 L -4.946,6 -16.802,-55 M 28.831,29 C 47.198,29 60.597,24.18 69.019,14.539 77.44,4.898 79.976,-8.559 76.616,-25.836 75.233,-32.953 72.894,-39.46 69.601,-45.355 66.304,-51.254 61.999,-56.648 56.679,-61.539 50.339,-67.472 43.296,-71.7 35.546,-74.218 27.796,-76.743 17.925,-78 5.925,-78 l -27.196,0 -7.531,-38.75 -31.75,0 28.328,145.75 61.055,0"
                 id="path3490"
                 style="fill:#ffffff;fill-opacity:1;fill-rule:nonzero;stroke:none" />
            </g>
            <g
               id="g3492"
               transform="translate(311.583,116.3066)">
              <path
                 inkscape:connector-curvature="0"
                 d="m 0,0 c -0.896,0 -1.745,0.4 -2.314,1.092 -0.571,0.691 -0.802,1.6 -0.631,2.48 L 9.586,68.061 C 10.778,74.194 10.484,78.596 8.759,80.456 7.703,81.593 4.531,83.5 -4.848,83.5 L -27.55,83.5 -43.305,2.428 C -43.579,1.018 -44.814,0 -46.25,0 l -31.5,0 c -0.896,0 -1.745,0.4 -2.315,1.092 -0.57,0.691 -0.801,1.601 -0.63,2.48 l 28.328,145.751 c 0.274,1.409 1.509,2.427 2.945,2.427 l 31.5,0 c 0.896,0 1.745,-0.4 2.315,-1.091 0.57,-0.692 0.801,-1.601 0.63,-2.481 L -21.813,113 2.609,113 c 18.605,0 31.221,-3.28 38.569,-10.028 7.49,-6.884 9.827,-17.891 6.947,-32.719 L 34.945,2.428 C 34.671,1.018 33.437,0 32,0 L 0,0 Z"
                 id="path3494"
                 style="fill:#000000;fill-opacity:1;fill-rule:nonzero;stroke:none" />
            </g>
            <g
               id="g3496"
               transform="translate(293.6611,271.0571)">
              <path
                 inkscape:connector-curvature="0"
                 d="m 0,0 -31.5,0 c -2.873,0 -5.342,-2.036 -5.89,-4.855 l -28.328,-145.751 c -0.342,-1.759 0.12,-3.578 1.26,-4.961 1.14,-1.383 2.838,-2.183 4.63,-2.183 l 31.5,0 c 2.872,0 5.342,2.036 5.89,4.855 l 15.283,78.645 20.229,0 c 9.363,0 11.328,-2 11.407,-2.086 0.568,-0.611 1.315,-3.441 0.082,-9.781 l -12.531,-64.489 c -0.342,-1.759 0.12,-3.578 1.26,-4.961 1.14,-1.383 2.838,-2.183 4.63,-2.183 l 32,0 c 2.872,0 5.342,2.036 5.89,4.855 l 13.179,67.825 c 3.093,15.921 0.447,27.864 -7.861,35.5 -7.928,7.281 -21.208,10.82 -40.599,10.82 l -20.784,0 6.143,31.605 C 6.231,-5.386 5.77,-3.566 4.63,-2.184 3.49,-0.801 1.792,0 0,0 m 0,-6 -7.531,-38.75 28.062,0 c 17.657,0 29.836,-3.082 36.539,-9.238 6.703,-6.16 8.711,-16.141 6.032,-29.938 l -13.18,-67.824 -32,0 12.531,64.488 c 1.426,7.336 0.902,12.34 -1.574,15.008 -2.477,2.668 -7.746,4.004 -15.805,4.004 l -25.176,0 -16.226,-83.5 -31.5,0 L -31.5,-6 0,-6"
                 id="path3498"
                 style="fill:#ffffff;fill-opacity:1;fill-rule:nonzero;stroke:none" />
            </g>
            <g
               id="g3500"
               transform="translate(409.5498,145.3066)">
              <path
                 inkscape:connector-curvature="0"
                 d="m 0,0 c 12.065,0 21.072,2.225 26.771,6.611 5.638,4.34 9.532,11.861 11.574,22.353 1.903,9.806 1.178,16.653 -2.155,20.348 C 32.783,53.086 25.417,55 14.297,55 L -4.984,55 -15.673,0 0,0 Z m -63.062,-67.75 c -0.895,0 -1.745,0.4 -2.314,1.092 -0.57,0.691 -0.802,1.601 -0.631,2.48 L -37.679,81.573 C -37.404,82.982 -36.17,84 -34.733,84 L 26.32,84 C 45.509,84 59.79,78.79 68.768,68.513 77.793,58.183 80.579,43.742 77.051,25.592 75.613,18.198 73.144,11.331 69.709,5.183 66.27,-0.972 61.725,-6.667 56.198,-11.747 49.582,-17.939 42.094,-22.429 33.962,-25.071 25.959,-27.678 15.681,-29 3.414,-29 l -24.723,0 -7.057,-36.322 c -0.275,-1.41 -1.509,-2.428 -2.946,-2.428 l -31.75,0 z"
                 id="path3502"
                 style="fill:#000000;fill-opacity:1;fill-rule:nonzero;stroke:none" />
            </g>
            <g
               id="g3504"
               transform="translate(407.0391,197.3071)">
              <path
                 inkscape:connector-curvature="0"
                 d="M 0,0 16.808,0 C 30.229,0 34.891,-2.945 36.475,-4.7 39.104,-7.614 39.6,-13.758 37.91,-22.466 36.012,-32.217 32.493,-39.13 27.452,-43.012 22.29,-46.986 13.898,-49 2.511,-49 L -9.522,-49 0,0 Z m 28.831,35 -61.054,0 c -2.872,0 -5.341,-2.036 -5.889,-4.855 L -66.44,-115.606 c -0.342,-1.759 0.12,-3.578 1.259,-4.961 1.14,-1.383 2.838,-2.183 4.63,-2.183 l 31.75,0 c 2.872,0 5.342,2.036 5.89,4.855 l 6.587,33.895 22.249,0 c 12.582,0 23.174,1.372 31.479,4.077 8.541,2.775 16.401,7.481 23.356,13.986 5.752,5.291 10.488,11.23 14.078,17.655 3.591,6.427 6.171,13.594 7.668,21.302 3.715,19.105 0.697,34.403 -8.969,45.467 C 63.965,29.444 48.924,35 28.831,35 m -45.632,-90 19.312,0 c 12.801,0 22.336,2.411 28.601,7.234 6.267,4.824 10.492,12.875 12.688,24.157 2.102,10.832 1.145,18.476 -2.871,22.929 C 36.909,3.773 28.87,6 16.808,6 L -4.946,6 -16.801,-55 M 28.831,29 C 47.198,29 60.597,24.18 69.019,14.539 77.441,4.898 79.976,-8.559 76.616,-25.836 75.233,-32.953 72.894,-39.46 69.601,-45.355 66.304,-51.254 61.999,-56.648 56.679,-61.539 50.339,-67.472 43.296,-71.7 35.546,-74.218 27.796,-76.743 17.925,-78 5.925,-78 l -27.196,0 -7.53,-38.75 -31.75,0 28.328,145.75 61.054,0"
                 id="path3506"
                 style="fill:#ffffff;fill-opacity:1;fill-rule:nonzero;stroke:none" />
            </g>
          </g>
        </g>
      </g>
      <path
         id="path4794"
         d="m 280.59766,888.05859 c -3.51539,-0.13254 -6.91439,0.29818 -10.14454,1.40039 -6.46028,2.20444 -11.61085,7.32269 -14.32226,13.34766 a 9.2788485,9.2788485 0 0 0 -0.008,0.0195 l -15.78125,35.29102 -15.23242,-35.17774 -0.006,-0.0137 c -3.96749,-9.18398 -13.98869,-15.26437 -24.54102,-14.85937 l -0.002,0 c -3.50247,0.13485 -7.08359,0.8168 -10.76172,1.96093 -3.7318,1.13361 -7.73895,3.28156 -10.46289,6.99805 -2.72917,3.72362 -3.66602,8.24883 -3.66602,12.57227 l 0,63.28515 a 9.2788485,9.2788485 0 0 0 9.27735,9.27735 l 16.05273,0 a 9.2788485,9.2788485 0 0 0 9.27734,-9.27735 l 0,-20.13867 7.07422,15.73438 c 0.001,0.003 0.003,0.005 0.004,0.008 1.92985,4.39931 4.90036,8.60463 9.24023,11.23633 4.34247,2.63326 9.20711,3.36328 14.07227,3.36328 4.86559,0 9.73272,-0.7348 14.05273,-3.39844 4.32002,-2.66364 7.2014,-6.86089 9.10742,-11.20703 l 7.07618,-15.73633 0,20.13867 a 9.2788485,9.2788485 0 0 0 9.27734,9.27735 l 16.05274,0 a 9.2788485,9.2788485 0 0 0 5.36914,-1.72071 9.2788485,9.2788485 0 0 0 -0.95118,4.08203 l 0,10.79883 a 9.2788485,9.2788485 0 0 0 9.27735,9.27736 l 50.6875,0 a 9.2788485,9.2788485 0 0 0 0.27148,0 c 4.99068,-0.1459 12.21561,-0.9356 19.44531,-4.3614 6.42257,-3.04328 13.25547,-9.67102 14.66016,-18.7187 a 9.2788485,9.2788485 0 0 0 3.40039,0.64649 l 46.15039,0 c 6.68091,0 13.09133,-1.31819 18.71485,-3.94922 4.56752,-2.10251 8.61066,-5.34052 11.46484,-9.26953 0.63732,0.99351 1.28148,1.98497 2.07422,2.86718 4.11575,4.58033 9.67163,7.28694 15.86719,8.97657 a 9.2788485,9.2788485 0 0 0 0.002,0 c 4.10547,1.11871 8.06641,1.66601 11.87305,1.66601 l 17.16992,0 a 9.2788485,9.2788485 0 0 0 0.58789,-0.0176 l 8.97656,-0.57031 9.89063,8.92969 a 9.2788485,9.2788485 0 0 0 6.21679,2.39062 l 18.63867,0 a 9.2788485,9.2788485 0 0 0 6.2168,-16.16406 l -7.67969,-6.93164 c 0.2199,-0.29822 0.48466,-0.55013 0.68946,-0.86328 0.0364,-0.0556 0.056,-0.11797 0.0918,-0.17383 1.4406,2.07052 3.07573,3.99628 5.10157,5.51172 6.24734,4.67337 14.11705,6.67244 23.4082,7.36719 a 9.2788485,9.2788485 0 0 0 0.0762,0.006 c 1.54255,0.1025 3.29031,0.22461 5.24414,0.22461 l 41.83008,0 a 9.2788485,9.2788485 0 0 0 9.27734,-9.27735 l 0,-10.70312 A 9.2788485,9.2788485 0 0 0 641,952.90234 l -42.13867,0 c -1.716,0 -2.82317,-0.1735 -3.6875,-0.32031 l 0,-53.78906 a 9.2788485,9.2788485 0 0 0 -9.27735,-9.27735 l -16.05273,0 a 9.2788485,9.2788485 0 0 0 -9.22656,8.38868 c -5.29959,-4.51691 -12.0707,-6.78408 -19.85157,-7.85742 a 9.2788485,9.2788485 0 0 0 -0.0488,-0.006 c -1.8627,-0.24696 -3.74445,-0.38868 -5.70508,-0.38868 l -30.4707,0 c -1.84099,0 -3.73385,0.12425 -5.64844,0.4043 -7.56343,1.04925 -14.15029,3.26301 -19.37696,7.54688 a 9.2788485,9.2788485 0 0 0 -9.19335,-8.0879 l -45.07227,0 c -6.8746,0 -11.47354,0.48114 -15.62891,1.72657 a 9.2788485,9.2788485 0 0 0 -0.0976,0.0293 c -5.75051,1.79366 -10.89428,4.38318 -14.71094,8.79297 -3.50658,4.05152 -5.17379,9.37965 -5.43359,14.625 -1.54821,-1.26315 -3.35537,-2.84961 -3.35547,-2.84961 l -16.08594,0 a 9.2788485,9.2788485 0 0 0 -9.27734,9.27735 l 0,32.31836 c -2.60328,0.005 -3.22973,0.006 -6.60938,0.01 -8.1227,0.009 -17.00096,0.004 -18.87305,-0.0254 l -0.002,0 c -0.18117,-0.003 -0.11501,-0.0188 -0.26953,-0.0254 l 0,-32.10742 a 9.2788485,9.2788485 0 0 0 -9.37891,-9.27734 l -15.87109,0.17382 a 9.2788485,9.2788485 0 0 0 -4.14453,1.04102 l 0,-3.62695 c 0,-4.32407 -0.93685,-8.84911 -3.66602,-12.57227 -2.72394,-3.71603 -6.73179,-5.86438 -10.46289,-6.99805 -3.67423,-1.14295 -7.28728,-1.83687 -10.78515,-1.96875 z m 190.07422,30.69336 0,10.95313 c -2.69508,-2.14255 -5.69881,-4.02109 -9.07618,-5.3086 -5.35999,-2.06044 -11.20907,-2.98242 -17.05078,-2.98242 l -19.44922,0 c -1.14035,0 -0.81658,0.006 -1.21679,-0.0742 l 0,-2.52929 c 0.0864,-0.0195 0.96605,-0.041 0.59961,-0.041 l 45.84375,0 a 9.2788485,9.2788485 0 0 0 0.34961,-0.0176 z m 38.35742,0.17969 24.2832,0 c 1.37718,0 1.73778,0.20144 2.16797,0.3418 l 0,24.56445 -0.4082,-0.36914 a 9.2788485,9.2788485 0 0 0 -6.2168,-2.39063 l -18.63867,0 a 9.2788485,9.2788485 0 0 0 -3.66407,0.75782 l 0,-22.61719 c 0.56759,-0.14257 1.39024,-0.28711 2.47657,-0.28711 z m -113.70313,20.49805 c 1.14388,1.18622 2.39223,2.26746 3.72266,3.19531 5.50211,3.83723 12.40387,6.01987 20.44922,6.86328 a 9.2788485,9.2788485 0 0 0 0.35351,0.0312 c 1.54425,0.10245 3.29031,0.22461 5.24414,0.22461 l 16.66992,0 c 0.62115,0 0.93075,0.16218 -0.33203,-0.12109 a 9.2788485,9.2788485 0 0 0 1.28321,0.19531 c 0.97882,0.0793 0.97421,0.13699 1.50195,0.23047 l 0,2.68359 c -0.19056,0.0305 -0.20512,0.0717 -0.44727,0.0879 l 0.44727,-0.0137 0,0.004 c -1.25881,0.0166 -1.88479,0.0918 -1.52539,0.0918 l -44.29883,0 a 9.2788485,9.2788485 0 0 0 -3.07812,0.53711 c 10e-4,-1.41373 0.003,-2.5041 0.004,-3.93164 0.003,-3.66658 0.004,-6.65773 0.006,-10.07812 z m -89.81445,30.66211 c 1.69345,1.97995 3.62303,3.74733 5.81055,5.15429 -0.0968,-9e-5 -1.36859,-0.002 -1.39258,-0.002 a 9.2788485,9.2788485 0 0 0 -5.36914,1.7207 9.2788485,9.2788485 0 0 0 0.95117,-4.08203 l 0,-2.79101 z"
         style="fill:#ffffff;fill-rule:nonzero;stroke:none;stroke-width:0.87088001;stroke-linecap:butt;stroke-linejoin:miter;stroke-dasharray:none"
         transform="translate(0,-100)"
         inkscape:connector-curvature="0" />
      <g
         id="g4850">
        <path
           style="color:#000000;clip-rule:nonzero;display:inline;overflow:visible;visibility:visible;opacity:1;isolation:auto;mix-blend-mode:normal;color-interpolation:sRGB;color-interpolation-filters:linearRGB;solid-color:#000000;solid-opacity:1;fill:#aeb2d5;fill-opacity:1;fill-rule:nonzero;stroke:none;stroke-width:3;stroke-linecap:round;stroke-linejoin:round;stroke-miterlimit:4;stroke-dasharray:none;stroke-dashoffset:0;stroke-opacity:1;marker:none;color-rendering:auto;image-rendering:auto;shape-rendering:auto;text-rendering:auto;enable-background:accumulate"
           d="m 645.2679,814.75501 c -23.8185,-5.63969 -45.1152,-13.07869 -61.948,-21.6386 -18.7204,-9.5198 -24.0866,-15.40903 -35.6936,-39.17242 -4.1065,-8.40736 -7.9047,-15.31807 -8.4405,-15.35714 -2.4562,-0.17909 -7.1524,9.21925 -8.5384,17.0879 -1.806,10.25279 -3.7177,10.44287 -7.3246,0.72829 -3.2099,-8.64506 -3.4008,-24.97859 -0.3908,-33.42397 3.145,-8.82409 2.8086,-11.91121 -1.9509,-17.90023 -2.2984,-2.89213 -6.0773,-10.91884 -8.3975,-17.83713 -2.7108,-8.08247 -6.5788,-15.82211 -10.8212,-21.65242 -7.5938,-10.43611 -8.3846,-14.21633 -2.9741,-14.21633 3.8887,0 14.0303,4.616 18.2007,8.28418 1.3988,1.23035 6.7275,2.74072 11.8415,3.35639 12.817,1.54303 27.1372,9.30753 40.4455,21.9298 12.5277,11.88197 19.9973,22.46225 26.4782,37.50486 8.396,19.48798 15.0735,32.72782 17.6313,34.95858 1.3688,1.1938 5.8462,3.26324 9.9496,4.59876 4.1035,1.33551 12.6855,5.82678 19.0712,9.98058 l 11.6102,7.55238 -7.6426,0.99116 c -9.8005,1.27103 -18.007,3.70058 -19.8009,5.86209 -0.9778,1.17811 -0.1383,3.45518 2.7375,7.425 4.3322,5.9804 9.4168,9.6236 23.6063,16.91412 4.665,2.39686 8.7388,5.129 9.0529,6.07143 0.7111,2.13306 1.2131,2.19459 -16.7018,-2.04728 z"
           id="path4848"
           inkscape:connector-curvature="0" />
        <g
           id="g4740">
          <g
             id="g4432"
             style="fill:#00618a;fill-rule:nonzero;stroke:none;stroke-width:0.87088001;stroke-linecap:butt;stroke-linejoin:miter;stroke-dasharray:none"
             transform="matrix(1.25,0,0,1.25,184.94722,795.08812)">
            <path
               id="path4434"
               d="m 0,62.235 c 0,0 12.8418,0 12.8418,0 0,0 0,-50.711 0,-50.711 0,0 19.8808,44.208 19.8808,44.208 2.3457,5.351 5.5567,7.244 11.8536,7.244 6.2978,0 9.3847,-1.893 11.7314,-7.244 0,0 19.8799,-44.208 19.8799,-44.208 0,0 0,50.711 0,50.711 0,0 12.8428,0 12.8428,0 0,0 0,-50.628 0,-50.628 0,-4.939 -1.9766,-7.327 -6.0508,-8.561 C 73.2246,0 66.6797,2.634 63.7158,9.22 c 0,0 -19.5098,43.63 -19.5098,43.63 0,0 -18.8925,-43.63 -18.8925,-43.63 C 22.4736,2.634 15.8056,0 6.05078,3.046 1.97559,4.28 0,6.668 0,11.607 c 0,0 0,50.628 0,50.628 z"
               inkscape:connector-curvature="0" />
          </g>
          <g
             id="g4436"
             style="fill:#00618a;fill-rule:nonzero;stroke:none;stroke-width:0.87088001;stroke-linecap:butt;stroke-linejoin:miter;stroke-dasharray:none"
             transform="matrix(1.25,0,0,1.25,309.57937,821.11687)">
            <path
               id="path4438"
               d="m 0.002,0.136 c 0,0 12.838,0 12.838,0 0,0 0,27.938 0,27.938 -0.12,1.518 0.487,5.08 7.522,5.191 3.589,0.056 27.7,0 27.925,0 0,0 0,-33.265 0,-33.265 0,0 12.868,0 12.868,0 0.059,0 -0.013,45.364 -0.012,45.557 0.071,11.188 -13.882,13.618 -20.313,13.806 0,0 -40.549,0 -40.549,0 0,0 0,-8.639 0,-8.639 0.071,0 40.519,0.008 40.621,-0.002 8.265,-0.873 7.289,-4.981 7.288,-6.364 0,0 0,-3.368 0,-3.368 0,0 -27.295,0 -27.295,0 C 8.196,40.873 0.109,35.331 0.009,28.955 0,28.364 0.283,0.415 0.002,0.136 Z"
               inkscape:connector-curvature="0" />
          </g>
          <g
             id="g4440"
             style="fill:#e48e00;fill-rule:nonzero;stroke:none;stroke-width:0.87088001;stroke-linecap:butt;stroke-linejoin:miter;stroke-dasharray:none"
             transform="matrix(1.25,0,0,1.25,398.39437,798.79312)">
            <path
               id="path4442"
               d="m 0,59.271 c 0,0 36.92,0 36.92,0 4.322,0 8.521,-0.905 11.855,-2.47 5.556,-2.551 8.273,-6.008 8.273,-10.537 0,0 0,-9.384 0,-9.384 0,-3.705 -3.087,-7.163 -9.138,-9.467 -3.211,-1.236 -7.162,-1.894 -10.99,-1.894 0,0 -15.559,0 -15.559,0 -5.185,0 -7.655,-1.564 -8.272,-5.021 -0.124,-0.412 -0.124,-0.742 -0.124,-1.153 0,0 0,-5.844 0,-5.844 0,-0.33 0,-0.66 0.124,-1.071 0.617,-2.634 1.976,-3.376 6.544,-3.787 0.371,0 0.864,-0.083 1.235,-0.083 0,0 36.674,0 36.674,0 0,0 0,-8.56 0,-8.56 0,0 -36.057,0 -36.057,0 C 16.299,0 13.582,0.329 11.113,1.069 3.457,3.457 0.123,7.244 0.123,13.83 c 0,0 0,7.491 0,7.491 0,5.763 6.545,10.702 17.534,11.854 1.236,0.082 2.47,0.164 3.704,0.164 0,0 13.336,0 13.336,0 0.495,0 0.989,0 1.359,0.083 4.075,0.33 5.803,1.07 7.039,2.552 0.74,0.74 0.987,1.482 0.987,2.305 0,0 0,7.491 0,7.491 0,0.906 -0.617,2.059 -1.851,3.046 -1.112,0.988 -2.964,1.647 -5.434,1.812 -0.494,0 -0.864,0.082 -1.358,0.082 0,0 -35.439,0 -35.439,0 0,0 0,8.561 0,8.561 z"
               inkscape:connector-curvature="0" />
          </g>
          <g
             id="g4444"
             style="fill:#e48e00;fill-rule:nonzero;stroke:none;stroke-width:0.87088001;stroke-linecap:butt;stroke-linejoin:miter;stroke-dasharray:none"
             transform="matrix(1.25,0,0,1.25,569.84437,798.79312)">
            <path
               id="path4446"
               d="m 0,44.371 c 0,8.808 6.544,13.748 19.757,14.736 1.234,0.082 2.47,0.164 3.704,0.164 0,0 33.464,0 33.464,0 0,0 0,-8.561 0,-8.561 0,0 -33.711,0 -33.711,0 -7.532,0 -10.372,-1.894 -10.372,-6.421 0,0 0,-44.289 0,-44.289 C 12.842,0 0,0 0,0 0,0 0,44.371 0,44.371 Z"
               inkscape:connector-curvature="0" />
          </g>
          <g
             id="g4448"
             style="fill:#e48e00;fill-rule:nonzero;stroke:none;stroke-width:0.87088001;stroke-linecap:butt;stroke-linejoin:miter;stroke-dasharray:none"
             transform="matrix(1.25,0,0,1.25,479.94937,798.92937)">
            <path
               id="path4450"
               d="m 0,44.711 c 0,0 0,-30.522 0,-30.522 C 0,6.435 5.445,1.732 16.209,0.247 17.323,0.083 18.561,0 19.674,0 c 0,0 24.376,0 24.376,0 1.237,0 2.352,0.083 3.589,0.247 10.765,1.485 16.209,6.188 16.209,13.942 0,0 0,30.522 0,30.522 0,6.291 -2.312,9.658 -7.641,11.852 0,0 12.65,11.418 12.65,11.418 0,0 -14.911,0 -14.911,0 0,0 -10.234,-9.238 -10.234,-9.238 0,0 -10.303,0.653 -10.303,0.653 0,0 -13.735,0 -13.735,0 -2.351,0 -4.825,-0.331 -7.548,-1.073 C 3.96,56.096 0,51.806 0,44.711 Z m 13.861,-0.742 c 0,0.413 0.123,0.825 0.247,1.32 0.742,3.547 4.083,5.527 9.156,5.527 0,0 11.667,0 11.667,0 0,0 -10.717,-9.675 -10.717,-9.675 0,0 14.911,0 14.911,0 0,0 9.347,8.438 9.347,8.438 1.722,-0.918 2.856,-2.322 3.252,-4.125 0.123,-0.412 0.123,-0.825 0.123,-1.237 0,0 0,-29.285 0,-29.285 0,-0.33 0,-0.743 -0.123,-1.156 C 50.981,10.477 47.64,8.58 42.691,8.58 c 0,0 -19.427,0 -19.427,0 -5.691,0 -9.403,2.475 -9.403,6.352 0,0 0,29.037 0,29.037 z"
               inkscape:connector-curvature="0" />
          </g>
          <g
             id="g4452"
             style="fill:#00618a;fill-rule:nonzero;stroke:none;stroke-width:0.87088001;stroke-linecap:butt;stroke-linejoin:miter;stroke-dasharray:none"
             transform="matrix(1.25,0,0,1.25,486.01187,637.29364)">
            <path
               id="path4454"
               d="m 135.289,114.997 c -7.894,-0.214 -13.924,0.52 -19.079,2.694 -1.465,0.618 -3.801,0.634 -4.04,2.47 0.805,0.844 0.93,2.104 1.57,3.142 1.231,1.992 3.309,4.661 5.163,6.061 2.026,1.529 4.114,3.165 6.286,4.489 3.863,2.356 8.176,3.701 11.896,6.061 2.192,1.391 4.37,3.143 6.509,4.713 1.057,0.776 1.768,1.983 3.142,2.469 0,-0.074 0,-0.149 0,-0.224 -0.722,-0.919 -0.908,-2.183 -1.571,-3.143 -0.972,-0.972 -1.945,-1.945 -2.918,-2.918 -2.853,-3.787 -6.475,-7.113 -10.325,-9.876 -3.07,-2.204 -9.942,-5.181 -11.223,-8.754 -0.075,-0.075 -0.149,-0.15 -0.225,-0.225 2.177,-0.245 4.726,-1.033 6.735,-1.571 3.375,-0.905 6.391,-0.671 9.876,-1.571 1.571,-0.449 3.142,-0.899 4.714,-1.347 0,-0.3 0,-0.598 0,-0.898 -1.762,-1.808 -3.018,-4.2 -4.939,-5.836 -5.026,-4.28 -10.512,-8.556 -16.161,-12.1216 -3.133,-1.9776 -7.005,-3.2627 -10.325,-4.9385 -1.117,-0.5635 -3.079,-0.8565 -3.817,-1.7959 -1.744,-2.2237 -2.694,-5.042 -4.039,-7.6319 C 99.7,78.8194 96.933,72.8936 94.437,67.1856 92.734,63.293 91.622,59.4541 89.499,55.9619 79.307,39.2051 68.336,29.0908 51.341,19.1494 47.725,17.0352 43.371,16.2002 38.77,15.1094 36.302,14.96 33.832,14.8096 31.363,14.6602 29.856,14.0303 28.288,12.1865 26.874,11.293 21.244,7.73633 6.803,0 2.633,10.1709 0,16.5908 6.568,22.8555 8.917,26.1084 c 1.649,2.2822 3.76,4.8408 4.938,7.4072 0.775,1.6866 0.909,3.378 1.572,5.1631 1.632,4.3965 3.051,9.1797 5.162,13.2432 1.067,2.0557 2.243,4.2217 3.592,6.0605 0.827,1.128 2.244,1.625 2.468,3.3672 -1.386,1.9395 -1.465,4.9502 -2.244,7.4073 -3.508,11.0615 -2.185,24.8105 2.918,32.9971 1.566,2.513 5.254,7.903 10.325,5.836 4.436,-1.807 3.445,-7.406 4.714,-12.3458 0.287,-1.1202 0.111,-1.9434 0.673,-2.6934 0,0.0742 0,0.1494 0,0.2246 1.347,2.6934 2.694,5.3867 4.041,8.0796 2.99,4.816 8.297,9.849 12.794,13.245 2.332,1.761 4.168,4.806 7.183,5.836 0,-0.075 0,-0.149 0,-0.225 -0.076,0 -0.15,0 -0.225,0 -0.584,-0.911 -1.498,-1.288 -2.244,-2.02 -1.757,-1.722 -3.71,-3.863 -5.163,-5.836 -4.09,-5.553 -7.705,-11.631 -10.998,-17.9575 -1.573,-3.0205 -2.94,-6.3535 -4.266,-9.4278 -0.511,-1.1855 -0.505,-2.9775 -1.57,-3.5917 -1.452,2.2529 -3.591,4.0742 -4.714,6.7343 -1.796,4.252 -2.028,9.4375 -2.693,14.8147 -0.394,0.141 -0.219,0.044 -0.45,0.224 -3.126,-0.754 -4.225,-3.9723 -5.386,-6.733 -2.939,-6.9824 -3.485,-18.2256 -0.899,-26.2627 0.669,-2.0791 3.693,-8.6289 2.469,-10.5498 -0.584,-1.917 -2.512,-3.0254 -3.591,-4.4902 -1.335,-1.8106 -2.668,-4.1944 -3.592,-6.2852 -2.405,-5.4443 -3.528,-11.5557 -6.06,-17.0586 -1.21,-2.6309 -3.257,-5.293 -4.938,-7.6318 C 10.872,21.0489 8.788,19.1406 7.346,16.0069 6.833,14.8936 6.136,13.1113 6.897,11.9668 7.139,11.1943 7.48,10.8721 8.244,10.6201 c 1.302,-1.00389 4.928,0.334 6.284,0.8975 3.6,1.4951 6.604,2.9189 9.653,4.9385 1.464,0.9707 2.944,2.8476 4.713,3.3672 0.673,0 1.347,0 2.02,0 3.16,0.7265 6.7,0.2256 9.652,1.122 5.218,1.586 9.894,4.0528 14.141,6.7344 12.938,8.169 23.516,19.7979 30.752,33.6699 1.164,2.2334 1.668,4.3653 2.693,6.7344 2.069,4.7774 4.675,9.6934 6.733,14.3652 2.054,4.6612 4.056,9.3653 6.959,13.2442 1.527,2.039 7.422,3.1328 10.101,4.2646 1.878,0.794 4.955,1.621 6.734,2.693 3.398,2.05 6.69,4.49 9.877,6.735 1.593,1.122 6.489,3.583 6.733,5.611 z"
               inkscape:connector-curvature="0" />
          </g>
          <g
             id="g4456"
             style="fill:#00618a;fill-rule:evenodd;stroke:none;stroke-width:0.87088001;stroke-linecap:butt;stroke-linejoin:miter;stroke-dasharray:none"
             transform="matrix(1.25,0,0,1.25,524.65437,674.10024)">
            <path
               id="path4458"
               d="M 4.041,0.0303 C 2.395,0 1.231,0.21 0,0.4786 c 0,0.0751 0,0.1503 0,0.2246 0.075,0 0.15,0 0.225,0 C 1.01,2.3164 2.396,3.3545 3.367,4.7442 4.115,6.3155 4.863,7.8868 5.612,9.4571 5.686,9.3828 5.762,9.3077 5.836,9.2334 7.226,8.2539 7.863,6.6866 7.856,4.295 7.299,3.709 7.217,2.9737 6.734,2.2744 6.092,1.3428 4.85,0.8135 4.041,0.0303 Z"
               inkscape:connector-curvature="0" />
          </g>
          <g
             id="g4460"
             style="fill:#e48e00;fill-rule:evenodd;stroke:none;stroke-width:1;stroke-linecap:butt;stroke-linejoin:miter;stroke-dasharray:none"
             transform="matrix(1.25,0,0,1.25,648.53562,850.04687)">
            <path
               id="path4462"
               d="m 0,9.463 c 0,5.654 4.467,9.464 9.464,9.464 4.997,0 9.464,-3.81 9.464,-9.464 C 18.928,3.81 14.461,0 9.464,0 4.467,0 0,3.81 0,9.463 Z m 16.808,0 c 0,4.29 -3.28,7.496 -7.344,7.496 -4.113,0 -7.344,-3.206 -7.344,-7.496 0,-4.29 3.231,-7.496 7.344,-7.496 4.064,0 7.344,3.206 7.344,7.496 z m -4.794,5.401 c 0,0 2.119,0 2.119,0 0,0 -3.103,-4.744 -3.103,-4.744 1.665,-0.177 2.926,-0.985 2.926,-2.953 0,-2.196 -1.387,-3.104 -4.062,-3.104 0,0 -4.215,0 -4.215,0 0,0 0,10.801 0,10.801 0,0 1.817,0 1.817,0 0,0 0,-4.669 0,-4.669 0,0 1.691,0 1.691,0 0,0 2.827,4.669 2.827,4.669 z M 7.496,8.681 c 0,0 0,-3.104 0,-3.104 0,0 2.094,0 2.094,0 1.086,0 2.398,0.202 2.398,1.464 0,1.513 -1.186,1.64 -2.549,1.64 0,0 -1.943,0 -1.943,0 z"
               inkscape:connector-curvature="0" />
          </g>
        </g>
      </g>
    </g>
    <g
       id="g4527"
       style="fill:#00618a;fill-rule:nonzero;stroke:none;stroke-width:0.87088001;stroke-linecap:butt;stroke-linejoin:miter;stroke-dasharray:none"
       transform="matrix(1.25,0,0,1.25,184.94722,795.08812)" />
    <g
       id="g4531"
       style="fill:#00618a;fill-rule:nonzero;stroke:none;stroke-width:0.87088001;stroke-linecap:butt;stroke-linejoin:miter;stroke-dasharray:none"
       transform="matrix(1.25,0,0,1.25,309.57937,821.11687)" />
    <g
       id="g4535"
       style="fill:#e48e00;fill-rule:nonzero;stroke:none;stroke-width:0.87088001;stroke-linecap:butt;stroke-linejoin:miter;stroke-dasharray:none"
       transform="matrix(1.25,0,0,1.25,398.39437,798.79312)" />
    <g
       id="g4539"
       style="fill:#e48e00;fill-rule:nonzero;stroke:none;stroke-width:0.87088001;stroke-linecap:butt;stroke-linejoin:miter;stroke-dasharray:none"
       transform="matrix(1.25,0,0,1.25,569.84437,798.79312)" />
  </g>
</svg>
